# xmcd CD database file
#
# Track frame offsets:
#        150
#        22737
#        33015
#        48200
#        60627
#        72904
#        86641
#        96592
#        106563
#        116790
#        129648
#        142170
#        153342
#        167012
#        178949
#        190616
#        200566
#        213671
#        226137
#        238154
#
# Disc length: 3353 seconds
#
# Revision: 0
# Processed by: cddbd v1.5.2PL0 Copyright (c) Steve Scherf et al.
# Submitted via: CUERipper 2.1.5
#
DISCID=150d1714
DTITLE=B.B. King - Confessin'
DYEAR=1900
DGENRE=
TTITLE0=Everyday U Have the Blues
TTITLE1=Bad Luck Soul
TTITLE2=You Done Lost Your Good Thing Now
TTITLE3=When My Heart Beats Like a Hammer
TTITLE4=Good Man Gone Bad
TTITLE5=Baby Look At You
TTITLE6=Lonely
TTITLE7=Blues For Me
TTITLE8=Bad Case of Love
TTITLE9=Driving Wheel
TTITLE10=Be Careful With a Fool
TTITLE11=Fishin' After Me
TTITLE12=Just Like a Woman
TTITLE13=Don't You Want A Man Like Me
TTITLE14=You Know I Go For You
TTITLE15=Peace Of Mind
TTITLE16=Blind Love
TTITLE17=Walkin'
TTITLE18=Don't Look Now, But I've Got The Blues
TTITLE19=Partin' Time
EXTD=
EXTT0=
EXTT1=
EXTT2=
EXTT3=
EXTT4=
EXTT5=
EXTT6=
EXTT7=
EXTT8=
EXTT9=
EXTT10=
EXTT11=
EXTT12=
EXTT13=
EXTT14=
EXTT15=
EXTT16=
EXTT17=
EXTT18=
EXTT19=
PLAYORDER=
